<?xml version="1.0" encoding="utf-8"?>
<!-- Generator: Adobe Illustrator 27.0.0, SVG Export Plug-In . SVG Version: 6.00 Build 0)  -->
<svg version="1.1" id="Слой_1" xmlns="http://www.w3.org/2000/svg" xmlns:xlink="http://www.w3.org/1999/xlink" x="0px" y="0px"
	 viewBox="0 0 434.6 152.2" style="enable-background:new 0 0 434.6 152.2;" xml:space="preserve">
<style type="text/css">
	.st0{fill:#266ff2;}
	.st1{clip-path:url(#SVGID_00000049922985707789963820000014251100020898435741_);}
	.st2{clip-path:url(#SVGID_00000007421935473211241290000003754797487550987407_);}
</style>
<g>
	<path class="st0" d="M263.8,66.7c0.7,0,1.2,0,1.8,0c0.1,0,0.3,0.1,0.6,0.1c-2.2,5.6-5.6,10.3-10.1,14.1c-4.5,3.8-9.7,6.3-15.5,7.6
		c-0.2,14.4-5.7,26.4-17.2,35.2c-11.6,8.8-24.5,10.8-38.7,6.8c14.4,8.6,37.3,11.8,58.1,1.4c21.1-10.5,38.2-34.9,34-65
		c0.8-0.3,4.2-0.3,5.7-0.1c4.5,26.9-10.2,60.9-44.4,73.4c-34.4,12.6-72.7-4.4-86.6-38.4c-13.9-34.1,1.5-72.7,35-88
		c32.5-14.8,68.7-1.7,85.6,25c-0.4,0-0.7,0.1-1.1,0.1c-2.4,0-4.9,0-7.3,0c-0.8,0-1.3-0.3-1.7-1c-4-7.1-9.9-12.1-17.6-14.9
		c-17.6-6.4-37.1,3.4-42.6,21.3c-0.1,0.4-0.2,0.9-0.4,1.4c1.4,0.2,2.8,0.4,4.1,0.7c1.3,0.2,2.6,0.6,4,0.9c-0.1,0.8-0.3,1.5-0.4,2.3
		c-2.7-0.6-5.4-1.3-8.3-1.4c-1.6,11.3,1.3,21.1,9.4,29.2c8.6,8.6,20.2,10.5,27.8,9c0-1.4-0.2-2.8-0.5-4.2c-0.2-1.4-0.6-2.8-0.9-4.3
		c0.7-0.1,1.4-0.3,2.2-0.4c0.9,2.8,1.2,5.7,1.6,8.6C251.4,83.4,259,76.9,263.8,66.7z M238.2,89c-11.8,1.2-21.9-2-30.1-10.5
		c-8.2-8.5-11.1-18.7-9.5-30.5c-0.6,0-0.9,0-1.3,0c-5.2,0-10.2,1.1-14.9,3.1c-19.3,8.1-29.4,29.8-23.3,50
		c5.6,18.5,23.4,30.7,42.5,28.8c9.8-1,18.1-5,25-12c6.8-6.9,10.5-15.2,11.5-24.8C238.1,91.7,238.1,90.4,238.2,89z M241.2,19.6
		c-16.9-8.9-46-10-68.3,10c-5.9,5.3-10.6,11.5-14.2,18.6c-3.5,7-5.6,14.5-6.3,22.3c-0.7,7,0.7,20.2,2.5,23.1
		c-1-12.9,2.5-24.3,11.2-33.8c8.7-9.6,19.8-14.2,32.8-14c2.5-9.3,7.7-16.6,15.8-21.6C223,19,231.9,17.7,241.2,19.6z"/>
	<path class="st0" d="M194.4,107.2c-2.5,0-4.8,0-7.3,0c0-7.6,0-15.1,0-22.7c-2.9,0-5.7,0-8.5,0c0-2,0-3.9,0-5.9c8.1,0,16.2,0,24.5,0
		c0.1,1.9,0,3.8,0,5.8c-2.9,0-5.7,0-8.6,0C194.4,92,194.4,99.6,194.4,107.2z"/>
	<path class="st0" d="M175.3,107.2c-2.4,0-4.7,0-7.2,0c0-9.5,0-19,0-28.6c2.4,0,4.7,0,7,0C175.4,79.4,175.6,104.1,175.3,107.2z"/>
	<g>
		<defs>
			<polygon id="SVGID_1_" points="-14.8,121.7 162.1,121.7 149.8,64.8 -14.8,67.8 			"/>
		</defs>
		<clipPath id="SVGID_00000057149923029412189470000006699021296367944082_">
			<use xlink:href="#SVGID_1_"  style="overflow:visible;"/>
		</clipPath>
		
			<g id="text_group_00000007412098384111401000000017863929553233426842_" transform="rotate(0)" style="clip-path:url(#SVGID_00000057149923029412189470000006699021296367944082_);">
			
				<g id="text_layer_1_0_00000123409684055017195080000012001477589758386599_" transform="translate(4.387493246798044, 645.7259094444237)">
				<path class="st0" d="M25.2-553.9v7.4c-1.7,0.9-3.6,1.4-5.1,1.4c-4.8,0-8.4-3.7-8.4-8.6c0-4.8,3.6-8.5,8.3-8.5
					c2.7,0,5.6,1.2,7.7,3.1l4.1-5c-3-2.6-7.5-4.3-11.7-4.3c-9.1,0-15.8,6.3-15.8,14.6c0,8.4,6.6,14.7,15.4,14.7
					c4,0,8.9-1.6,11.9-3.7v-11.2H25.2z M43.9-539.3v-30.5h-7.1v30.5H43.9z M60-561.7c-7.3,0-12.1,4.5-12.1,11.3s4.8,11.3,12.1,11.3
					c7.2,0,12.1-4.5,12.1-11.3S67.2-561.7,60-561.7z M60-556.1c2.9,0,4.9,2.3,4.9,5.7c0,3.4-2,5.7-4.9,5.7c-3,0-5-2.3-5-5.7
					C55-553.7,57-556.1,60-556.1z M89.8-561.7c-2.8,0-5,1.2-6.6,3.2v-11.2h-7.1v30.5h7.1v-3c1.6,2.1,3.9,3.2,6.8,3.2
					c6.2,0,10.2-4.5,10.2-11.2C100.2-557.1,96-561.7,89.8-561.7z M88.1-544.7c-2.9,0-4.9-2.3-4.9-5.8c0-3.4,2-5.7,4.9-5.7
					c3,0,5,2.4,5,5.7C93-547.1,91-544.7,88.1-544.7z M113.9-561.8c-3.7,0-6.8,0.9-10.3,2.5l2,4.7c2.3-1.2,4.8-1.8,6.6-1.8
					c2.9,0,4.3,1.3,4.3,3.5v0.3h-5.8c-5.5,0-8.5,2.5-8.5,6.7c0,4.1,2.9,6.9,7.6,6.9c3,0,5.3-1,6.8-2.9v2.5h6.9v-14.4
					C123.5-558.8,120-561.8,113.9-561.8z M112-543.8c-2,0-3.1-1-3.1-2.6c0-1.6,1.1-2.4,3.2-2.4h4.5v2
					C116.1-545,114.3-543.8,112-543.8z M135.9-539.3v-30.5h-7.1v30.5H135.9z M158.7-539.3v-28.7h-7.3v28.7H158.7z M186.4-562.2v-5.9
					h-24.5v5.9h8.6v22.9h7.3v-22.9H186.4z M212.5-568.3c-8.7,0-15.4,6.2-15.4,14.5c0,8.4,6.4,14.8,15.1,14.8c4.2,0,8.8-2.1,11.9-5.3
					l-4.3-4.5c-2,2.1-4.8,3.4-7.2,3.4c-4.6,0-8-3.7-8-8.5c0-4.7,3.5-8.3,8-8.3c2.5,0,5.3,1.4,7.2,3.7l4.2-5
					C221.2-566.4,216.7-568.3,212.5-568.3z M242.1-561.8c-3.3,0-5.9,1.4-7.4,4v-12h-7.1v30.5h7.1v-10.9c0-3,1.7-5.3,4.5-5.3
					c2.4,0,3.9,1.6,3.9,4.2v12h7.1v-14C250.2-558.5,247-561.8,242.1-561.8z M265.1-561.8c-3.7,0-6.8,0.9-10.3,2.5l2,4.7
					c2.3-1.2,4.8-1.8,6.6-1.8c2.9,0,4.3,1.3,4.3,3.5v0.3H262c-5.5,0-8.5,2.5-8.5,6.7c0,4.1,2.9,6.9,7.6,6.9c3,0,5.3-1,6.8-2.9v2.5
					h6.9v-14.4C274.7-558.8,271.2-561.8,265.1-561.8z M263.2-543.8c-2,0-3.1-1-3.1-2.6c0-1.6,1.1-2.4,3.2-2.4h4.5v2
					C267.3-545,265.5-543.8,263.2-543.8z M287.1-539.3v-30.5H280v30.5H287.1z M300.3-539.3v-30.5h-7.1v30.5H300.3z M315.9-561.7
					c-6.9,0-11.5,4.5-11.5,11.4c0,6.7,4.5,11.2,11.7,11.2c4.1,0,7.4-1.4,9.6-3.9l-3.7-3.7c-1.5,1.5-3.4,2.3-5.3,2.3
					c-2.6,0-4.5-1.5-5.2-4.1H327C327.5-556.6,323.7-561.7,315.9-561.7z M311.3-552.3c0.5-2.7,2.1-4.5,4.6-4.5c2.5,0,4.3,1.8,4.3,4.5
					H311.3z M345.4-561.8c-3.3,0-5.8,1.4-7.4,3.9v-3.6h-7.1v22.1h7.1V-551c0.3-2.6,1.9-4.5,4.5-4.5c2.4,0,3.9,1.6,3.9,4.2v12h7.1
					v-14C353.5-558.5,350.3-561.8,345.4-561.8z M379.6-561.4h-7.1v2.7c-1.6-2.1-3.9-3-6.5-3c-5.5,0-9.4,4.2-9.4,10.5
					c0,6.4,3.9,10.7,9.5,10.7c2.7,0,4.9-1.1,6.4-3v2.3c0,2.7-2.1,4.6-5.5,4.6c-2.4,0-4.8-0.8-6.9-2.2l-2.5,4.8
					c2.5,1.7,6,2.9,9.9,2.9c7.1,0,12-4,12-10.3V-561.4z M368-545.6c-2.8,0-4.7-2.2-4.7-5.4c0-3.2,1.9-5.4,4.7-5.4
					c2.8,0,4.6,2.2,4.6,5.4C372.6-547.9,370.7-545.6,368-545.6z M394.7-561.7c-6.9,0-11.5,4.5-11.5,11.4c0,6.7,4.5,11.2,11.7,11.2
					c4.1,0,7.4-1.4,9.6-3.9l-3.7-3.7c-1.5,1.5-3.4,2.3-5.3,2.3c-2.6,0-4.5-1.5-5.2-4.1h15.6C406.4-556.6,402.5-561.7,394.7-561.7z
					 M390.2-552.3c0.5-2.7,2.1-4.5,4.6-4.5c2.5,0,4.3,1.8,4.3,4.5H390.2z"/>
			</g>
		</g>
	</g>
	<g>
		<defs>
			<rect id="SVGID_00000126319945553789751260000018375824357710450366_" x="209.4" y="29" width="210.4" height="49"/>
		</defs>
		<clipPath id="SVGID_00000170238608535532151050000008853413663855986367_">
			<use xlink:href="#SVGID_00000126319945553789751260000018375824357710450366_"  style="overflow:visible;"/>
		</clipPath>
		
			<g id="text_group_00000106107620612163824020000006024772861156062624_" transform="rotate(0)" style="clip-path:url(#SVGID_00000170238608535532151050000008853413663855986367_);">
			
				<g id="text_layer_1_0_00000083768671445775191310000004018258005314597301_" transform="translate(4.387493246798044, 645.7259094444237)">
				<path class="st0" d="M34.7-596.3v7.4c-1.7,0.9-3.6,1.4-5.1,1.4c-4.8,0-8.4-3.7-8.4-8.6c0-4.8,3.6-8.5,8.3-8.5
					c2.7,0,5.6,1.2,7.7,3.1l4.1-5c-3-2.6-7.5-4.3-11.7-4.3c-9.1,0-15.8,6.3-15.8,14.6c0,8.4,6.6,14.7,15.4,14.7
					c4,0,8.9-1.6,11.9-3.7v-11.2H34.7z M53.3-581.7v-30.5h-7.1v30.5H53.3z M69.5-604c-7.3,0-12.1,4.5-12.1,11.3s4.8,11.3,12.1,11.3
					c7.2,0,12.1-4.5,12.1-11.3S76.7-604,69.5-604z M69.5-598.4c2.9,0,4.9,2.3,4.9,5.7c0,3.4-2,5.7-4.9,5.7c-3,0-5-2.3-5-5.7
					C64.5-596.1,66.5-598.4,69.5-598.4z M99.3-604c-2.8,0-5,1.2-6.6,3.2v-11.2h-7.1v30.5h7.1v-3c1.6,2.1,3.9,3.2,6.8,3.2
					c6.2,0,10.2-4.5,10.2-11.2C109.7-599.5,105.5-604,99.3-604z M97.6-587c-2.9,0-4.9-2.3-4.9-5.8c0-3.4,2-5.7,4.9-5.7
					c3,0,5,2.4,5,5.7C102.5-589.4,100.5-587,97.6-587z M123.4-604.1c-3.7,0-6.8,0.9-10.3,2.5l2,4.7c2.3-1.2,4.8-1.8,6.6-1.8
					c2.9,0,4.3,1.3,4.3,3.5v0.3h-5.8c-5.5,0-8.5,2.5-8.5,6.7c0,4.1,2.9,6.9,7.6,6.9c3,0,5.3-1,6.8-2.9v2.5h6.9v-14.4
					C133-601.1,129.5-604.1,123.4-604.1z M121.5-586.1c-2,0-3.1-1-3.1-2.6c0-1.6,1.1-2.4,3.2-2.4h4.5v2
					C125.6-587.4,123.7-586.1,121.5-586.1z M145.4-581.7v-30.5h-7.1v30.5H145.4z M168.1-581.7v-28.7h-7.3v28.7H168.1z M195.9-604.5
					v-5.9h-24.5v5.9h8.6v22.9h7.3v-22.9H195.9z M222-610.6c-8.7,0-15.4,6.2-15.4,14.5c0,8.4,6.4,14.8,15.1,14.8
					c4.2,0,8.8-2.1,11.9-5.3l-4.3-4.5c-2,2.1-4.8,3.4-7.2,3.4c-4.6,0-8-3.7-8-8.5c0-4.7,3.5-8.3,8-8.3c2.5,0,5.3,1.4,7.2,3.7l4.2-5
					C230.7-608.7,226.2-610.6,222-610.6z M251.6-604.1c-3.3,0-5.9,1.4-7.4,4v-12h-7.1v30.5h7.1v-10.9c0-3,1.7-5.3,4.5-5.3
					c2.4,0,3.9,1.6,3.9,4.2v12h7.1v-14C259.7-600.8,256.5-604.1,251.6-604.1z M274.6-604.1c-3.7,0-6.8,0.9-10.3,2.5l2,4.7
					c2.3-1.2,4.8-1.8,6.6-1.8c2.9,0,4.3,1.3,4.3,3.5v0.3h-5.8c-5.5,0-8.5,2.5-8.5,6.7c0,4.1,2.9,6.9,7.6,6.9c3,0,5.3-1,6.8-2.9v2.5
					h6.9v-14.4C284.2-601.1,280.7-604.1,274.6-604.1z M272.7-586.1c-2,0-3.1-1-3.1-2.6c0-1.6,1.1-2.4,3.2-2.4h4.5v2
					C276.8-587.4,274.9-586.1,272.7-586.1z M296.6-581.7v-30.5h-7.1v30.5H296.6z M309.8-581.7v-30.5h-7.1v30.5H309.8z M325.3-604
					c-6.9,0-11.5,4.5-11.5,11.4c0,6.7,4.5,11.2,11.7,11.2c4.1,0,7.4-1.4,9.6-3.9l-3.7-3.7c-1.5,1.5-3.4,2.3-5.3,2.3
					c-2.6,0-4.5-1.5-5.2-4.1h15.6C337-598.9,333.1-604,325.3-604z M320.8-594.6c0.5-2.7,2.1-4.5,4.6-4.5c2.5,0,4.3,1.8,4.3,4.5
					H320.8z M354.9-604.1c-3.3,0-5.8,1.4-7.4,3.9v-3.6h-7.1v22.1h7.1v-11.7c0.3-2.6,1.9-4.5,4.5-4.5c2.4,0,3.9,1.6,3.9,4.2v12h7.1
					v-14C362.9-600.8,359.7-604.1,354.9-604.1z M389.1-603.8h-7.1v2.7c-1.6-2.1-3.9-3-6.5-3c-5.5,0-9.4,4.2-9.4,10.5
					c0,6.4,3.9,10.7,9.5,10.7c2.7,0,4.9-1.1,6.4-3v2.3c0,2.7-2.1,4.6-5.5,4.6c-2.4,0-4.8-0.8-6.9-2.2l-2.5,4.8
					c2.5,1.7,6,2.9,9.9,2.9c7.1,0,12-4,12-10.3V-603.8z M377.5-588c-2.8,0-4.7-2.2-4.7-5.4c0-3.2,1.9-5.4,4.7-5.4
					c2.8,0,4.6,2.2,4.6,5.4C382.1-590.2,380.2-588,377.5-588z M404.2-604c-6.9,0-11.5,4.5-11.5,11.4c0,6.7,4.5,11.2,11.7,11.2
					c4.1,0,7.4-1.4,9.6-3.9l-3.7-3.7c-1.5,1.5-3.4,2.3-5.3,2.3c-2.6,0-4.5-1.5-5.2-4.1h15.6C415.9-598.9,412-604,404.2-604z
					 M399.7-594.6c0.5-2.7,2.1-4.5,4.6-4.5c2.5,0,4.3,1.8,4.3,4.5H399.7z"/>
			</g>
		</g>
	</g>
</g>
</svg>
