<?xml version="1.0" encoding="UTF-8"?> <svg xmlns="http://www.w3.org/2000/svg" width="1315" height="1017" viewBox="0 0 1315 1017" fill="none"> <path d="M1112 220.2H925V372.1H1112V220.2Z" fill="#BCD7FD"></path> <path d="M987 293.9C981.6 336.8 976.2 379.6 970.9 422.5C970.7 424 973.1 424 973.2 422.5C978.6 379.6 984 336.8 989.3 293.9C989.5 292.4 987.1 292.4 987 293.9Z" fill="#BCD7FD"></path> <path d="M1035.6 248.3H949.9V260H1035.6V248.3Z" fill="white"></path> <path d="M1098.1 281H1051.2V247.1H1098.1V281ZM1053.5 278.7H1095.8V249.5H1053.5V278.7Z" fill="white"></path> <path d="M1035.6 269.3H949.9V281H1035.6V269.3Z" fill="white"></path> <path d="M1030.9 291.5H951C949.5 291.5 949.5 293.8 951 293.8H1030.8C1032.4 293.9 1032.4 291.5 1030.9 291.5Z" fill="white"></path> <path d="M999.1 321.9H951C949.5 321.9 949.5 324.2 951 324.2H999.1C1000.6 324.3 1000.6 321.9 999.1 321.9Z" fill="#EBF4FF"></path> <path d="M229.7 574.4H98.2V895.2H229.7V574.4Z" fill="#9AC7FF"></path> <path d="M396.2 630.5H264.7V895.2H396.2V630.5Z" fill="#9AC7FF"></path> <path d="M562.8 400.9H431.3V895.3H562.8V400.9Z" fill="#9AC7FF"></path> <path d="M729.3 574.4H597.8V895.2H729.3V574.4Z" fill="#9AC7FF"></path> <path d="M895.8 495.5H764.3V895.2H895.8V495.5Z" fill="#9AC7FF"></path> <path d="M1062.4 574.4H930.9V895.2H1062.4V574.4Z" fill="#9AC7FF"></path> <path d="M1228.9 641H1097.4V895.2H1228.9V641Z" fill="#9AC7FF"></path> <path d="M992 688.4C951.3 579.9 973.5 460.6 940.9 350.4C927.8 306.1 904.8 263.6 869.9 232.8C837.9 204.6 796.8 188.9 754 193.3C714.1 197.4 676 218.6 657.9 255.4C635.7 300.6 643.8 353.1 629.4 400.4C622.5 423 610.4 444.7 590 457.7C568.3 471.5 541.3 473.1 516.5 468.8C463.2 459.4 420.8 422.2 370.1 405.4C319.5 388.7 263.6 392.1 213.6 409.3C166.2 425.6 123.7 454.3 87.3002 488.5C78.1002 497.2 69.2002 506.2 60.6002 515.6C59.6002 516.7 61.2002 518.4 62.3002 517.3C132.7 440.4 233.8 380.7 341.6 400.6C369 405.7 394.1 416.8 418.6 429.8C441.1 441.7 463.3 454.8 487.4 463.5C528.7 478.3 580.3 479.3 610.5 442.6C639.8 407 639.1 357.9 644.5 314.6C647.7 289.1 653.5 262.9 668.8 241.6C681.1 224.5 698.9 211.9 718.4 204.2C758.8 188.5 804.7 193.3 841.8 215.3C882 239.1 910.8 279 928.3 321.7C971.1 425.9 950.8 542.4 977.6 650.1C980.9 663.3 984.9 676.4 989.7 689.1C990.3 690.4 992.5 689.8 992 688.4Z" fill="#D24A43"></path> <path d="M76.3001 512.5C76.4001 521.9 69.8 527 61.8 527C53.8 527 47.3 520.5 47.3 512.5C47.3 504.5 52.2 497.7 61.6 497.4C69.6 497.1 76.2001 504.5 76.3001 512.5Z" fill="#D24A43"></path> <path d="M453.2 443.2C453.3 450.6 448.1 454.6 441.8 454.6C435.5 454.6 430.4 449.5 430.4 443.2C430.4 436.9 434.3 431.5 441.7 431.3C448 431.1 453.1 436.9 453.2 443.2Z" fill="#D24A43"></path> <path d="M971.8 534.3C971.9 540.4 967.6 543.6 962.5 543.6C957.3 543.6 953.2 539.4 953.2 534.3C953.2 529.1 956.4 524.8 962.4 524.6C967.5 524.4 971.7 529.2 971.8 534.3Z" fill="#D24A43"></path> <path d="M152.6 928.9C147.2 926.1 162.7 889 176.9 852.7C159.4 851.6 141.8 851.2 124.4 849.5C116.2 893 108 948 108 954.5C108 954.5 166.5 936 152.6 928.9Z" fill="#FFA79B"></path> <path d="M120 861.4C130.8 861.2 175.9 862.9 181.9 863.1C186.4 844.5 193.2 810.7 196 795C201.1 765.8 226.7 555.9 230.4 528.9H142C141.2 533.6 140.2 538 139.8 542.3C139 550.5 138.4 558.4 137.8 566.1C132.2 637.8 132.5 693.7 135.3 801.2C131.7 811.4 124.7 835.4 120 861.4Z" fill="#D24A43"></path> <path d="M152.6 928.9C152.5 928.8 152.3 928.7 152.2 928.6C147.4 930.8 142.2 931.6 136.5 931C128 930.1 119.8 927.6 111.3 928.2C109.3 942 108 952 108 954.5H172.4C174.1 936.8 166.5 936 152.6 928.9Z" fill="#2252B2"></path> <path d="M297.2 926.7C291.9 921.8 295.1 888.6 298 853.1C280.8 853.7 263.7 854 246.6 853.4C248.9 897.4 254.6 954.6 254.6 954.6H336.3C337.7 928.4 311.8 940.2 297.2 926.7Z" fill="#FFA79B"></path> <path d="M241.1 864.7C261.4 865.3 282.6 865 300.2 865.3C301.9 829.3 301.7 809.8 300.8 788.7C297.9 723.5 282 624 272.2 564.6C270.4 553.7 268.8 544.1 267.5 536.4L176.4 523.4C175.2 550 246.2 810.1 246.2 810.1C245 820.6 242.2 842.2 241.1 864.7Z" fill="#D24A43"></path> <path d="M298.1 927.5C292.1 929.2 286 930.3 279.7 930.6C270.3 931.1 261.2 928.7 252 927.9C253.4 943.7 254.5 954.5 254.5 954.5H336.2C337.7 928.9 312.9 939.7 298.1 927.5Z" fill="#2252B2"></path> <path d="M208.2 670.3C205.8 659 203.4 647.6 201 636.3C200.9 635.9 200.8 635.5 200.7 635.1C201.1 635.1 201.5 635.2 201.9 635.3C202 635.7 202.1 636.1 202.1 636.5C204.5 647.7 206.8 658.9 209.2 670.1C209.5 670.7 208.4 671 208.2 670.3Z" fill="black"></path> <path d="M202.3 636.4C201.9 636.3 201.5 636.3 201.1 636.2C191 634.9 180.8 633.7 170.7 632.4C170 632.3 170 631.1 170.7 631.2C180.7 632.4 190.8 633.7 200.8 634.9C201.2 634.9 201.6 635 202 635.1C202.1 635.6 202.2 636 202.3 636.4Z" fill="black"></path> <path d="M236.2 378.8C235.5 379.5 229.1 414 229.1 414L200.6 400.7L217.2 371.4L236.2 378.8Z" fill="#FFA79B"></path> <path d="M233.8 389.3C234.9 383.6 235.9 379.1 236.2 378.9L229.2 376.2C228.9 381 230.4 386.3 233.8 389.3Z" fill="black"></path> <path d="M208.4 340.2C211.4 332.7 225.7 329.2 235.2 331.5C239.3 332.5 241.4 329.7 242.3 333.1C244.5 341.4 251.5 368.5 248.4 374.7C243 385.6 228.4 383 221.1 375.4C213.6 367.7 204.2 350.9 208.4 340.2Z" fill="#FFA79B"></path> <path d="M241.2 326.2C237 324.9 230.7 328.2 228 330.8C219.7 331 210.7 334.4 208.4 340.2C205.6 347.4 186.9 362 191.9 375.5C195 383.9 216.3 393.1 224.3 387C233.8 379.8 230 356.2 231.1 354.4C234.9 349.5 233.5 343.1 231.2 338.5C234 339.7 241.8 336.9 243.3 333.5C245.2 328.6 242.5 326.6 241.2 326.2Z" fill="#697CCC"></path> <path d="M218.8 360C219.4 355.4 225.5 351.6 231.2 354.4C232.4 359.2 233.8 364 235.3 368.8C233 370.6 227.7 371.9 224.1 370.2C219.9 368.3 218.2 364.9 218.8 360Z" fill="#FFA79B"></path> <path d="M249.2 352.5C248.6 350.7 246.5 349.9 244.8 350.7C244.2 351 244.1 351.8 244.4 352.2C244.4 352.3 244.5 352.3 244.5 352.3C244.3 352.4 244.2 352.5 244 352.6C242.9 353.5 244.5 355.1 245.6 354.2C245.6 354.2 245.7 354.2 245.6 354.3C244.7 354.9 245 356.4 246.2 356.4C248.1 356.4 249.8 354.4 249.2 352.5Z" fill="#FFA79B"></path> <path d="M240.9 339.4C240 340 239.1 340.6 238.3 341.1C237 341.9 238.2 343.9 239.5 343.1C240.4 342.5 241.3 341.9 242.1 341.4C243.4 340.6 242.2 338.5 240.9 339.4Z" fill="#697CCC"></path> <path d="M242.6 346.5C242.5 347.6 242.4 348.6 242.3 349.7C242.2 350.4 243.4 350.4 243.5 349.7C243.6 348.6 243.7 347.6 243.8 346.5C243.8 345.7 242.7 345.7 242.6 346.5Z" fill="black"></path> <path d="M246.2 366.4C244.8 366.4 243.5 365.5 243 364.2C242.7 363.5 241.6 363.8 241.9 364.5C242.6 366.3 244.3 367.6 246.2 367.6C246.9 367.6 246.9 366.4 246.2 366.4Z" fill="#D24A43"></path> <path d="M231.2 362.4L227.7 359.5C227.1 359 226.3 359.8 226.9 360.3C228.1 361.3 229.2 362.2 230.4 363.2C230.9 363.7 231.7 362.8 231.2 362.4Z" fill="#D24A43"></path> <path d="M272.2 564.7C274.3 538.6 276.2 499.4 277.7 468.7C280.7 404.1 257.4 400.1 215.4 400.4C156.1 400.8 153.1 398.9 146.3 449.9C141.5 486.4 138.6 540.8 137.7 566C146.5 566.6 249.6 564.3 272.2 564.7Z" fill="#BCD7FD"></path> <path d="M240.4 484.8C236 495.1 236.6 507.5 240.5 518.4C244 528.3 250.5 535.6 258.9 538.5C254.5 525.8 249.2 513.4 245.3 500.7C243.6 495.5 242 490.2 240.4 484.8Z" fill="black"></path> <path d="M262.5 433.3L294.3 426.6C294.3 426.6 319.7 477.2 318.3 477.7C316.8 478.3 287.9 486.5 287 485.9C286.2 485.3 262.5 433.3 262.5 433.3Z" fill="#BCD7FD"></path> <path d="M294.4 426.5C305.8 423.3 325.1 418.9 325.1 418.9C325.1 418.9 330.7 405 337.7 395.2C338.9 393.5 348.9 388.7 350.6 388C367.8 381.8 356.4 430.8 356.4 430.8C356.4 430.8 312.6 469.1 312 468.2C311.3 467.4 294.4 426.5 294.4 426.5Z" fill="#FFA79B"></path> <path d="M335.8 413.1C335.7 409 335 405.3 333.5 401.5C334.5 399.4 335.3 397.2 335.8 394.8C336.1 393.4 334.5 391.9 333.2 392.9C330.7 394.8 328.8 397 327.6 399.6C327.5 399.7 327.4 399.8 327.4 400C324.4 406.2 323.1 412.6 323.5 419.6C323.6 420.6 324.2 421.1 325 421.2C325.7 421.7 326.6 421.7 327.2 421.2C327.8 422.3 329.5 422.8 330.2 421.4C330.6 420.7 330.9 420.1 331.2 419.4C331.6 419.2 331.9 418.9 332.1 418.3C332.5 417.3 332.9 416.1 333.2 414.8C334.3 415.1 335.8 414.4 335.8 413.1Z" fill="#FFA79B"></path> <path d="M333.4 403.7C333.1 403 332.1 403.6 332.4 404.3C333.8 407.4 334.5 410.7 334.6 414.1C334.6 414.8 335.8 414.9 335.8 414.1C335.6 410.5 334.8 407 333.4 403.7Z" fill="#D24A43"></path> <path d="M380.3 398.3C380.5 412.9 370.2 420.9 357.7 420.9C345.2 420.9 335.1 410.8 335.1 398.3C335.1 385.8 342.8 375.2 357.4 374.7C369.9 374.3 380.1 385.8 380.3 398.3Z" fill="#D24A43"></path> <path d="M349.3 343.8C349 342.3 346.8 343 347 344.4C348.2 350.2 349.3 356.1 350.5 361.9C350.8 363.4 353 362.8 352.8 361.3C351.7 355.5 350.5 349.7 349.3 343.8Z" fill="#D24A43"></path> <path d="M387.8 353.9C383.7 358.5 379.5 363.2 375.4 367.8C374.4 368.9 376 370.6 377.1 369.5L389.5 355.6C390.4 354.5 388.8 352.8 387.8 353.9Z" fill="#D24A43"></path> <path d="M327.7 384.6C325.4 383.2 323 381.9 320.7 380.5C319.4 379.7 318.2 381.8 319.5 382.5C321.8 383.9 324.2 385.2 326.5 386.6C327.8 387.4 329 385.4 327.7 384.6Z" fill="#D24A43"></path> <path d="M285.7 553.3C295.2 543.1 304.6 532.8 313.1 521.8C312.8 518.3 312.2 515.9 312.2 515.9C312.2 515.9 301.1 480.7 285.6 435.2C271 392.4 262.7 399.5 215.4 400.3C215.4 400.3 215.2 403.2 215 408.2C245 453.1 269.1 501.9 285.7 553.3Z" fill="#BCD7FD"></path> <path d="M378.3 402.4C378.4 399.7 376.2 397.8 374.9 398.8C375.2 396.7 371.2 393.8 370 395.9C369.6 394.2 367.2 392.8 364.6 396.2C363.1 398.1 361.8 403.5 361.1 406.6C360.5 407.5 354.4 412.6 352.6 414.2C350.4 414.6 350.5 402.4 350.6 400C350.8 396.1 347.5 393.6 346.5 395.9C344.7 399.9 342.6 406.2 342.3 410.6C342.1 412.6 341.1 421.3 335.7 427.9C329 433.3 321.3 440.2 313.7 447.3C314.7 468.9 317.7 490.2 322.5 511.2C340 486.7 356.6 458.3 364.1 442.3C364.8 441.6 373.9 428.7 374.2 428.4C378.1 423 381.4 414.7 381.8 407.4C381.5 404.5 380.1 401.4 378.3 402.4Z" fill="#FFA79B"></path> <path d="M364.2 414C363.7 414.5 362.8 413.8 363.3 413.3C367.5 409 369.6 403.4 369.2 397.5C369.1 396.8 370.3 396.6 370.4 397.4C370.7 403.5 368.6 409.5 364.2 414Z" fill="#D24A43"></path> <path d="M369.2 416.2C372.5 411.4 374.1 406 373.8 400.3C373.8 399.5 374.9 399.6 375 400.4C375.2 406.4 373.5 412 370.2 416.9C369.8 417.5 368.8 416.8 369.2 416.2Z" fill="#D24A43"></path> <path d="M373.1 418.9C375.9 414.2 377.6 409.2 378.1 403.7C378.2 402.9 379.3 403.1 379.3 403.9C378.8 409.6 377.1 414.8 374.1 419.6C373.6 420.3 372.7 419.6 373.1 418.9Z" fill="#D24A43"></path> <path d="M320.5 440.9C307.5 452.7 294 466 285.9 473.7C269.4 489.5 270.8 555.3 270.8 555.3C285.1 564.5 303.5 554.1 351.1 482.8C341 472.1 328.7 453.1 320.5 440.9Z" fill="#BCD7FD"></path> <path d="M341.9 417.2C341.8 416.5 340.7 416.4 340.7 417.2C341.1 421.5 336.5 425.1 333.9 428C331.1 431.1 328.4 434.2 325.6 437.3C325.1 437.9 325.9 438.7 326.4 438.1C329.9 434.1 333.4 430.2 336.9 426.2C339.3 423.7 342.2 421 341.9 417.2Z" fill="#D24A43"></path> <path d="M297.3 468.5C296.8 467.3 296.3 466 295.8 464.8C295.6 464.4 295.5 464 295.3 463.6C291.3 453.6 287.3 443.6 283.3 433.6C283 432.9 284.2 432.6 284.4 433.3C288.3 443.1 292.2 453 296.2 462.8C296.4 463.2 296.5 463.6 296.7 464C297.3 465.4 297.8 466.8 298.4 468.3C298.7 468.9 297.6 469.2 297.3 468.5Z" fill="white"></path> <path d="M304.2 457C301.7 459.3 299.2 461.6 296.7 463.9L295.8 464.7C295.6 464.3 295.5 463.9 295.3 463.5C295.6 463.2 295.9 463 296.2 462.7C298.6 460.5 301 458.3 303.3 456.1C304 455.7 304.8 456.5 304.2 457Z" fill="white"></path> <path d="M1004 672.9C1004.1 685.3 995.4 692.1 984.8 692.1C974.2 692.1 965.6 683.5 965.6 672.9C965.6 662.3 972.1 653.3 984.5 652.9C995.2 652.6 1003.9 662.4 1004 672.9Z" fill="#D24A43"></path> <path d="M970.9 699.1C967.8 705 964.7 710.8 961.7 716.7C961 718 963 719.2 963.7 717.9C966.8 712 969.9 706.2 972.9 700.3C973.6 698.9 971.6 697.8 970.9 699.1Z" fill="#D24A43"></path> <path d="M997.8 713.3C996.4 709 995 704.7 993.7 700.5C993.2 699.1 991 699.7 991.4 701.1C992.8 705.4 994.2 709.7 995.5 713.9C996 715.4 998.3 714.8 997.8 713.3Z" fill="#D24A43"></path> <path d="M964.2 648.8L954.9 632.4C954.2 631.1 952.1 632.3 952.9 633.6L962.2 650C963 651.2 965 650.1 964.2 648.8Z" fill="#D24A43"></path> <path d="M820.3 26.5724H494.2V198.741H820.3V26.5724Z" fill="#21B787"></path> <path d="M802.1 42.6844H675.3V168.543H802.1V42.6844Z" fill="white"></path> <path d="M779.4 76.1055C771.9 88.811 764.4 101.609 756.9 114.314C750.4 106.764 744 99.3068 737.5 91.7572C737 91.2047 736 91.4809 735.7 91.9413L692.4 150.773C691.6 151.878 693.6 152.983 694.4 151.878C708.5 132.728 722.6 113.485 736.7 94.3351C743.2 101.885 749.7 109.434 756.2 116.984C756.7 117.536 757.7 117.352 758 116.8C765.8 103.634 773.6 90.3761 781.4 77.2102C782.1 75.9213 780.1 74.8165 779.4 76.1055Z" fill="#D24A43"></path> <path d="M694.6 154.64C697.527 154.64 699.9 152.455 699.9 149.761C699.9 147.066 697.527 144.881 694.6 144.881C691.673 144.881 689.3 147.066 689.3 149.761C689.3 152.455 691.673 154.64 694.6 154.64Z" fill="#D24A43"></path> <path d="M736.8 99.2147C739.727 99.2147 742.1 97.03 742.1 94.3351C742.1 91.6401 739.727 89.4554 736.8 89.4554C733.873 89.4554 731.5 91.6401 731.5 94.3351C731.5 97.03 733.873 99.2147 736.8 99.2147Z" fill="#D24A43"></path> <path d="M756.2 121.864C759.127 121.864 761.5 119.679 761.5 116.984C761.5 114.289 759.127 112.104 756.2 112.104C753.273 112.104 750.9 114.289 750.9 116.984C750.9 119.679 753.273 121.864 756.2 121.864Z" fill="#D24A43"></path> <path d="M779.4 80.9851C782.327 80.9851 784.7 78.8004 784.7 76.1055C784.7 73.4105 782.327 71.2258 779.4 71.2258C776.473 71.2258 774.1 73.4105 774.1 76.1055C774.1 78.8004 776.473 80.9851 779.4 80.9851Z" fill="#D24A43"></path> <path d="M836.4 48.761C835.8 48.761 835.2 48.3007 835.2 47.6562V12.2097H798.2C797.6 12.2097 797 11.7493 797 11.1048C797 10.5524 797.5 10 798.2 10H836.4C837 10 837.6 10.4604 837.6 11.1048V47.6562C837.6 48.3007 837 48.761 836.4 48.761Z" fill="black"></path> <path d="M477.2 48.0244C476.6 48.0244 476 47.5641 476 46.9196V11.7493C476 11.1969 476.5 10.6445 477.2 10.6445H516.9C517.5 10.6445 518.1 11.1048 518.1 11.7493C518.1 12.3017 517.6 12.8541 516.9 12.8541H478.3V46.9196C478.3 47.5641 477.8 48.0244 477.2 48.0244Z" fill="black"></path> <path d="M512.74 219.54C512.74 220.14 512.28 220.74 511.635 220.74H476.465C475.913 220.74 475.36 220.24 475.36 219.54V179.84C475.36 179.24 475.82 178.64 476.465 178.64C477.017 178.64 477.57 179.14 477.57 179.84V218.44H511.635C512.28 218.44 512.74 218.94 512.74 219.54Z" fill="black"></path> <path d="M835.6 215.59H795.9C795.3 215.59 794.7 215.129 794.7 214.485C794.7 213.932 795.2 213.38 795.9 213.38H834.5V179.315C834.5 178.762 835 178.21 835.7 178.21C836.3 178.21 836.9 178.67 836.9 179.315V214.485C836.8 215.037 836.3 215.59 835.6 215.59Z" fill="black"></path> <path d="M1132.2 205.4C1128.3 208.5 1124.4 211.6 1120.5 214.8C1119.3 215.7 1121 217.4 1122.2 216.5C1126.1 213.4 1130 210.3 1133.9 207.1C1135 206.1 1133.3 204.5 1132.2 205.4Z" fill="#EBF4FF"></path> <path d="M918.6 207C913.1 199.2 907.6 191.5 902.1 183.7C901.2 182.5 899.2 183.6 900.1 184.9C905.6 192.7 911.1 200.4 916.6 208.2C917.5 209.4 919.5 208.2 918.6 207Z" fill="#EBF4FF"></path> <path d="M924.8 200.9C921.7 196.2 918.6 191.5 915.4 186.9C914.6 185.7 912.5 186.8 913.4 188.1C916.5 192.8 919.6 197.5 922.8 202.1C923.6 203.4 925.6 202.2 924.8 200.9Z" fill="#EBF4FF"></path> <path d="M276.2 166.8C270.4 176.8 258.2 178.5 247.8 175.9C237.1 173.2 227.9 166.9 217.6 163.2C204 158.3 184.6 159.4 180 176C179.6 177.5 181.9 178.1 182.3 176.6C185.6 164.6 199 161.1 209.9 163.3C220.3 165.4 229.4 171.4 239.1 175.3C252.2 180.7 270.1 182.1 278.2 167.9C279 166.7 277 165.5 276.2 166.8Z" fill="#EBF4FF"></path> <path d="M276.2 179.6C270.4 189.6 258.2 191.3 247.8 188.7C237.1 186 227.9 179.7 217.6 176C204 171.1 184.6 172.2 180 188.8C179.6 190.3 181.9 190.9 182.3 189.4C185.6 177.4 199 173.9 209.9 176.1C220.3 178.2 229.4 184.2 239.1 188.1C252.2 193.5 270.1 194.9 278.2 180.7C279 179.4 277 178.3 276.2 179.6Z" fill="#EBF4FF"></path> <path d="M126.3 332.3C114.2 336.9 102.1 341.5 90 346.1C88.6 346.6 89.2 348.9 90.6 348.4C102.7 343.8 114.8 339.2 126.9 334.6C128.3 334 127.7 331.7 126.3 332.3Z" fill="#EBF4FF"></path> <path d="M147.6 65.4C143.3 59.2 139 52.9 134.7 46.7C133.9 45.5 131.8 46.6 132.7 47.9C137 54.1 141.3 60.4 145.6 66.6C146.4 67.8 148.4 66.6 147.6 65.4Z" fill="#EBF4FF"></path> <path d="M158.2 62.9C154.7 57.4 151.2 52 147.7 46.5C146.9 45.2 144.9 46.4 145.7 47.7C149.2 53.2 152.7 58.6 156.2 64.1C157 65.4 159 64.2 158.2 62.9Z" fill="#EBF4FF"></path> <path d="M928.8 51.8C917.2 58.5 905.5 65.2 893.9 71.9C892.6 72.7 893.8 74.7 895.1 73.9C906.7 67.2 918.4 60.5 930 53.8C931.3 53 930.2 51 928.8 51.8Z" fill="#EBF4FF"></path> <path d="M1066.8 130.2C1066.3 128.8 1064 129.4 1064.5 130.8C1068.6 141.9 1053.4 144.6 1046.3 145.7C1041.7 146.4 1037.2 147.2 1033.4 150.1C1026.6 155.3 1024.2 164.9 1027.3 172.8C1027.8 174.2 1030.1 173.6 1029.6 172.2C1027.2 166 1028.2 158.8 1032.9 153.8C1038.1 148.2 1045.7 148.4 1052.6 147.2C1060.4 145.7 1070.2 139.5 1066.8 130.2Z" fill="#EBF4FF"></path> <path d="M1075 137.3C1074.5 135.9 1072.2 136.5 1072.7 137.9C1076.8 149 1061.6 151.7 1054.5 152.8C1049.9 153.5 1045.4 154.3 1041.6 157.2C1034.8 162.4 1032.4 172 1035.5 179.9C1036 181.3 1038.3 180.7 1037.8 179.3C1035.4 173.1 1036.4 165.9 1041.1 160.9C1046.3 155.3 1053.9 155.5 1060.8 154.3C1068.6 152.8 1078.4 146.5 1075 137.3Z" fill="#EBF4FF"></path> <path d="M599.5 555.2C596.5 548.5 593.5 541.9 590.5 535.2C589.9 533.8 587.9 535 588.5 536.4C591.5 543.1 594.5 549.7 597.5 556.4C598.1 557.8 600.2 556.6 599.5 555.2Z" fill="#EBF4FF"></path> <path d="M329.9 585.3C326 594.3 322.2 603.2 318.3 612.2C317.7 613.6 319.7 614.8 320.3 613.4C324.2 604.4 328 595.5 331.9 586.5C332.5 585.2 330.5 584 329.9 585.3Z" fill="#EBF4FF"></path> <path d="M332.3 595.9C329.5 602.1 326.7 608.3 323.9 614.5C323.3 615.9 325.3 617 325.9 615.7C328.7 609.5 331.5 603.3 334.3 597.1C335 595.7 333 594.5 332.3 595.9Z" fill="#EBF4FF"></path> <path d="M615.2 365.2C615.1 363.7 612.8 363.7 612.9 365.2C613.8 382.6 607.3 399.2 594.8 411.4C593.7 412.5 595.4 414.1 596.5 413.1C609.3 400.4 616.1 383.2 615.2 365.2Z" fill="#EBF4FF"></path> <path d="M603.5 368.7C603.5 381.3 598.7 392.9 589.9 401.8C588.8 402.9 590.5 404.5 591.6 403.5C600.9 394.1 606 381.9 605.9 368.7C605.9 367.2 603.5 367.2 603.5 368.7Z" fill="#EBF4FF"></path> <path d="M400.3 953.7H81.2C79.7 953.7 79.7 956 81.2 956H400.3C401.8 956 401.8 953.7 400.3 953.7Z" fill="#697CCC"></path> <path d="M1268.7 953.7H642.2C639.2 953.7 639.2 956 642.2 956H1268.7C1271.6 956 1271.6 953.7 1268.7 953.7Z" fill="#697CCC"></path> <path d="M708.7 928.5C716.8 934.9 725.8 940.1 735.5 944C742.9 946.9 750.5 949.1 758.2 951C759.3 944.1 761.9 927.7 763.9 907C748.3 905.5 732.8 903.2 717.2 902.5C718.5 919.5 717.3 924.1 708.7 928.5Z" fill="#BCD7FD"></path> <path d="M714.8 923.9C713.3 925.8 711.2 927.3 708.3 928.7C694 935.8 671.1 931.3 671.1 954.5H757.7C757.7 954.5 759 947.1 760.7 935C733.2 936.5 734.5 926.8 714.8 923.9Z" fill="#D24A43"></path> <path d="M719.7 536.5C705.9 615.8 700.3 876.2 702 912.4L764.3 918.2C764.3 918.2 774.3 805.2 769.5 783C769.5 783 802 545.8 800.8 519.2L719.7 536.5Z" fill="#2252B2"></path> <path d="M879.5 928.8C879.1 929 878.8 929.1 878.4 929.3C894.1 937.5 912.1 942.4 929.7 943.1C928.8 934.6 926.9 923.4 923.9 906.6C907.8 905.1 882.2 887.6 866.1 887C871 893 888.8 924.3 879.5 928.8Z" fill="#BCD7FD"></path> <path d="M913.8 931.7C908.1 931.5 902.5 930.3 897.2 928.5C891.9 926.7 887.3 923.9 882.1 923.3C882.1 925.9 881.3 927.9 879.5 928.7C864.8 935.8 841.1 931.3 841.1 954.5H930.4C930.4 948.2 929.6 940.7 927.7 929.1C923.5 931 918.8 931.9 913.8 931.7Z" fill="#D24A43"></path> <path d="M923.2 906.5L861.4 915.5C848.8 889.1 822.9 816.1 813.8 780.9C806.4 752.1 762.9 555.8 759 528.8H852.7C853.6 533.5 854.3 538 855 542.2C856.7 552.4 857.9 561.1 858.7 568.7C859.2 573.1 859.9 579.1 860.8 586.3C867.8 640.9 885.5 762.6 885.5 762.6C894.2 774.2 923.2 906.5 923.2 906.5Z" fill="#2252B2"></path> <path d="M785.9 657.6C782.4 640.8 778.8 624 775.3 607.2C775.2 606.8 775.2 606.5 775.1 606.1C775.4 606.2 775.8 606.3 776.1 606.4C776.2 606.8 776.3 607.1 776.3 607.5C779.8 624.1 783.3 640.7 786.8 657.3C787 657.9 786 658.2 785.9 657.6Z" fill="black"></path> <path d="M776.3 607.5C776 607.4 775.6 607.3 775.2 607.2L757.2 602C756.7 601.8 756.8 601.1 757.3 601.1C758.1 601 769.9 604.8 774.9 606.2C775.2 606.3 775.6 606.4 775.9 606.5C776.2 606.8 776.3 607.1 776.3 607.5Z" fill="black"></path> <path d="M858.7 568.7L715.7 565.1C715.7 536 713.8 481.1 713.5 454.8C713.4 446.7 713.5 441.3 713.8 440.3L729.5 419.1L765 415.5L771.4 414.8L794.5 412.5C794.5 412.5 795.5 412.2 797.2 411.7C808.1 408.6 849.5 398.7 854.4 423.9C855 426.9 855.5 430.4 856 434.5C856.5 439.3 857 444.9 857.4 450.9C858.1 461.7 858.5 473.9 858.8 486.4C859.5 526.6 858.7 568.7 858.7 568.7Z" fill="#FFA79B"></path> <path d="M820.8 252.3C825 249.2 829.1 246 833.2 242.8C816.8 228.8 804.1 218.7 804.1 218.7L783.6 242.1C786.5 247.6 792.2 257 799 267.7C805.7 262 813.8 257.5 820.8 252.3Z" fill="#952C28"></path> <path d="M870.3 424.3C866.3 432.5 862 441.3 857.3 450.9C857.2 451.2 857 451.5 856.9 451.8L848.7 446.6L796.5 413.7L794.5 412.4C794.5 412.4 795.4 410.7 797.1 407.8C797.2 407.6 797.3 407.5 797.4 407.3C801.1 400.9 808 389.1 815.6 376.7C825.4 360.6 836.5 343.2 843.3 334.8C843.3 334.8 815.6 294.1 797.3 265.1C803.4 259.9 823.5 241.6 827.6 238C849.6 256.6 881.4 284.5 896.9 303.8C917.1 329 909 344.8 870.3 424.3Z" fill="#FFA79B"></path> <path d="M854.7 331.3C851.8 331.9 848.9 332.5 845.9 333.1C845.2 333.2 845.5 334.4 846.2 334.2C849.1 333.6 852 333 855 332.4C855.7 332.3 855.4 331.2 854.7 331.3Z" fill="black"></path> <path d="M745.4 279.5C750.1 267.6 753.9 257.1 755.7 251.1L732 231.5C732 231.5 723.2 241.9 711.4 256.6C722 265.3 733.6 272.6 745.4 279.5Z" fill="#952C28"></path> <path d="M771.4 414.8C769.7 412.7 767.5 410 765 407.1C751.1 390.4 727.5 362.7 715.7 352.2C715.7 352.2 734.6 307.6 746.8 276.1C735.5 269 724.1 262.1 713.5 254.1C695.9 276 670.5 309 659.2 330.7C643.9 360 656.1 374.2 713.5 454.8C716.8 459.4 720.3 464.3 723.9 469.4L772.9 423.4L776.1 420.4C776 420.4 774.3 418.3 771.4 414.8Z" fill="#FFA79B"></path> <path d="M714.5 349.7C713.5 348.3 712.6 347 711.6 345.6C711.2 345 710.2 345.6 710.6 346.2C711.6 347.6 712.5 348.9 713.5 350.3C713.9 350.9 714.9 350.3 714.5 349.7Z" fill="black"></path> <path d="M740.4 255.3C740.9 256.7 742.8 257.7 744.2 257.2C744.5 257.1 744.9 257 745.2 256.8L745.3 257.4C745.4 258.2 745.7 258.9 746.2 259.4C745.8 262 745.2 264.6 744.4 267.1C744.2 267.8 744.2 268.5 744.5 269.1C748.4 263.2 753.2 257.8 755.9 251.2C756.2 250.5 756.6 249.8 757 249.1C757 249 757 248.9 757 248.9C762.7 237.3 760.4 202.8 755.7 204.7C750.7 206.7 751.8 211.1 752.1 215.3C750.7 215.6 747.3 218.4 746.9 218.9C746.3 217.6 745.7 216.4 745.1 215.2C748.5 209.9 750.7 203.9 751.7 197.5C752.3 193.5 746.3 191.8 745.6 195.7C745.3 195.7 745 195.7 744.8 195.8C737.1 200.9 732.2 207.2 730.3 215.8C728.4 224.6 728 233.5 728.2 242.5C727.9 245.7 727.5 249 727.2 252.2C727 253.9 728.1 254.9 729.4 255.2C730.3 256.1 731.7 256.4 732.9 255.9C733.4 255.8 733.9 255.6 734.3 255.3C734.6 255.6 734.9 256 735.3 256.3C737.1 257.9 739.4 257.3 740.4 255.3Z" fill="#952C28"></path> <path d="M742.7 214C742.5 215.8 742.3 217.6 742.1 219.5C742 220.2 743.2 220.2 743.3 219.5C743.5 217.7 743.7 215.9 743.9 214C743.9 213.3 742.7 213.3 742.7 214Z" fill="black"></path> <path d="M739.3 217.5C738.8 216.2 740.1 215.1 740.7 213.8C741.5 212.2 741.9 210.5 742.2 208.7C742.3 208 741.2 207.6 741.1 208.4C740.6 211.5 739.5 214.2 737.6 216.6C737.4 216.8 737.3 217.2 737.6 217.4C739.6 219.2 740.4 221.6 739.9 224.3C739.7 225 740.9 225.3 741 224.6C741.3 223.4 741.3 222.2 741.1 221C740.8 219.6 739.8 218.8 739.3 217.5Z" fill="black"></path> <path d="M795.6 204.2C795.8 221.4 783.7 230.8 769 230.8C754.3 230.8 742.4 218.9 742.4 204.2C742.4 189.5 751.5 177 768.7 176.4C783.4 175.9 795.4 189.5 795.6 204.2Z" fill="#D24A43"></path> <path d="M817.1 156.8C811.9 161.7 806.7 166.6 801.4 171.5C800.3 172.5 802 174.2 803.1 173.2C808.3 168.3 813.5 163.4 818.8 158.5C819.8 157.4 818.2 155.7 817.1 156.8Z" fill="#D24A43"></path> <path d="M742.3 179.7L734.1 171.5C733 170.4 731.4 172.1 732.4 173.2L740.6 181.4C741.7 182.4 743.3 180.7 742.3 179.7Z" fill="#D24A43"></path> <path d="M823 183C817.9 183.8 812.9 184.6 807.8 185.4C806.3 185.6 806.9 187.9 808.4 187.7C813.5 186.9 818.5 186.1 823.6 185.3C825.1 185 824.5 182.8 823 183Z" fill="#D24A43"></path> <path d="M806 224.5C806.1 224.1 806.2 223.7 806.1 223.2C805.1 219.5 804.2 215.7 803.2 212C803.3 202.1 798.1 192.3 789 183.7C786.1 181 784.1 183.9 786.4 187.6C787.9 191.7 790 195.3 793 198.5C793 198.9 791.4 211.3 791.4 217.4C791.4 218.2 780 223.8 777.3 229C777.6 235.8 781.3 241.9 787.8 245.5C790.2 246.8 792 244.1 790.8 242.2C791 242.1 791.2 241.9 791.4 241.7C793 242.1 794.9 240.9 794.3 238.9C794.3 238.8 794.2 238.7 794.2 238.6C795.6 238.6 797 237.4 796.7 235.8C797.1 235.8 797.6 235.6 797.9 235.4L798 235.5C799.1 236.7 801.6 236.2 801.9 234.5C802.3 232 802.4 229.5 802.4 227.1C804 228.1 806.7 226.9 806 224.5Z" fill="#952C28"></path> <path d="M746.3 194.9C745.5 194.8 741.5 198.3 740.5 199.8C740.1 200.4 740.1 201.1 740.3 201.6C739.3 202.8 738.2 204 737 205.1C734.8 207.1 738.1 210.4 740.3 208.4C743.6 205.4 746.4 202 748.8 198.3C750 196.4 748.1 194.7 746.3 194.9Z" fill="#952C28"></path> <path d="M797.3 408C791.2 397.7 779.8 378.2 779.3 376.5L756.8 383.5L763.4 401.9L767.2 412.6L770.2 420.9L785.5 417.6C788.8 413.8 793 410.8 797.3 408Z" fill="#952C28"></path> <path d="M775.4 377.7L756.8 383.5L762.9 400.5C769.1 394.3 774.4 386.3 775.4 377.7Z" fill="black"></path> <path d="M800.1 368.1C801.6 356.5 778.2 340.2 770.2 348.4C764.1 354.5 748.3 368.4 747.6 377.7C746.7 389.9 761.2 395.1 771.6 392.2C781.8 389.4 798.5 379.5 800.1 368.1Z" fill="#952C28"></path> <path d="M793.8 379.3C797.1 375.9 799.6 372.1 800.1 368.1C801.1 360.7 791.9 351.4 783 347.8C782.9 347.5 782.7 347.3 782.5 347C781.5 345.7 779.7 344.8 778.3 345.1C777 343.4 774.6 342.5 772.5 343.7C769.6 345.2 769.7 348.9 769.6 349.1C771.4 352.2 775 355.2 777.3 357.3C780.8 360.6 785.3 364.1 788.6 365.9C788.4 366 783.1 375.9 793.8 379.3Z" fill="black"></path> <path d="M796.1 386.4C797.4 382.5 794 377.1 788.4 377.3C785.6 380.8 782.6 384.1 779.6 387.5C780.7 389.8 784.5 392.8 788 392.8C792.1 392.7 794.7 390.6 796.1 386.4Z" fill="#952C28"></path> <path d="M765.7 419.8C762.6 415.2 763.8 410.3 764.9 407.1C769.3 407.5 792.8 407.6 797.4 407.4C797.4 407.5 794 419.2 784.7 423.5C779 426.2 768.8 424.4 765.7 419.8Z" fill="#952C28"></path> <path d="M790.5 385.4L786.7 385.1C786 385 786 386.2 786.7 386.3L790.5 386.6C791.3 386.6 791.3 385.4 790.5 385.4Z" fill="black"></path> <path d="M762.7 369.1C761.6 368.6 760.4 368.1 759.7 367.1C759.1 366.2 759.1 364.7 760.3 364.3C761 364.1 760.7 363 760 363.2C758.6 363.6 757.9 365.1 758.2 366.5C758.5 368.4 760.5 369.4 762.1 370.1C762.8 370.4 763.4 369.4 762.7 369.1Z" fill="black"></path> <path d="M765 379.4C764.1 380.2 762.7 380.4 761.6 379.9C760.9 379.6 760.3 380.6 761 380.9C762.7 381.6 764.4 381.4 765.8 380.2C766.4 379.7 765.6 378.9 765 379.4Z" fill="black"></path> <path d="M779.2 364.3C779 363.9 778.8 363.5 778.6 363.1C777.9 361.8 775.9 362.9 776.6 364.3C776.8 364.7 777 365.1 777.2 365.5C777.8 366.8 779.8 365.6 779.2 364.3Z" fill="black"></path> <path d="M767.2 353.3C766.5 353 765.8 352.7 765.2 352.4C764.6 352.2 763.9 352.2 763.6 352.8C763.3 353.3 763.4 354.1 764 354.4C764.7 354.7 765.4 355 766 355.3C766.6 355.5 767.3 355.5 767.6 354.9C767.9 354.5 767.8 353.6 767.2 353.3Z" fill="black"></path> <path d="M775.1 367.2C774.3 367.8 773.6 368.4 772.8 369.1C772.2 369.6 773.1 370.4 773.6 369.9C774.4 369.3 775.1 368.7 775.9 368C776.5 367.6 775.6 366.7 775.1 367.2Z" fill="black"></path> <path d="M764.1 356.4C763.3 357 762.6 357.6 761.8 358.3C761.2 358.8 762.1 359.6 762.6 359.1C763.4 358.5 764.1 357.9 764.9 357.2C765.5 356.7 764.7 355.9 764.1 356.4Z" fill="black"></path> <path d="M1189.6 458.9L1177.5 520.1L1168.6 564.8L1056.1 527.5C1056.1 527.5 1060.9 510.6 1067.5 490.3C1064.9 483.9 1072 469.5 1073.3 464.3C1076.8 451 1076.7 449.3 1077 448.4L1134.3 432.1L1144.6 429.2L1155.9 434.2L1170.8 445.1L1189.6 458.9Z" fill="#D24A43"></path> <path d="M1168.7 403.7C1167.3 408.8 1159.7 413.8 1164.4 416.1C1158.2 423.7 1155.4 437.2 1162 443.7C1165.7 447.3 1186.2 448.4 1191.1 449.9C1195.1 451.1 1200.2 450.6 1202 446.4C1205.8 448.9 1210.9 448.6 1214.5 445.6C1218.5 442.2 1219.7 436.5 1218.5 431.5C1217.1 425.8 1213 421.4 1208.2 418.2C1204.9 416 1200.7 414.1 1196.9 415.4C1200.3 410.9 1200.4 404.6 1196.5 400.2C1192.3 395.5 1185.4 395.1 1180.5 398.6C1180.7 397.2 1180.9 395.7 1181.1 394.3C1181.3 394.1 1181.3 393.8 1181.1 393.7C1180.9 393.4 1180.5 393.4 1180.4 393.7C1175.1 394.7 1170.2 398.3 1168.7 403.7Z" fill="#952C28"></path> <path d="M1139.3 542.7C1136.6 542.2 1133.8 541.8 1131.1 541.3C1116.9 538.9 1102.6 536.6 1088.5 534C1077.7 532 1067 529.1 1056.2 527.4C1028.2 612.5 1008.6 748.1 1005.5 770.3C1003.2 786.4 999.1 866 998.4 903.5C998.1 917.8 993.9 925.2 987 928.6C968.3 937.8 952.2 932.4 951 953.4H1029.3C1029.3 953.4 1065.6 840.1 1059.6 807C1059.4 807.1 1121 605.9 1139.3 542.7Z" fill="#FFA79B"></path> <path d="M998.1 907.1C997.2 919.1 993.2 925.6 986.8 928.7C968.1 937.9 952 932.5 950.8 953.5H1029.1C1029.1 953.5 1034.6 936.3 1041 913.3C1026.7 911.4 1012.4 909.1 998.1 907.1Z" fill="#FECA55"></path> <path d="M1043.5 904C1052.9 869.2 1062.7 825.6 1059.4 807.1C1059.4 807.1 1121 605.9 1139.3 542.6C1136.6 542.1 1133.8 541.7 1131.1 541.2C1116.9 538.8 1102.6 536.5 1088.5 533.9C1077.7 531.9 1067 529 1056.2 527.3C1028.2 612.4 1008.6 748 1005.5 770.2C1003.3 785.9 999.3 862 998.4 900.6C1013.4 901.7 1028.5 902.9 1043.5 904Z" fill="#2252B2"></path> <path d="M992.1 924.6C990.6 926.3 988.8 927.7 986.8 928.7C968.1 937.9 952 932.5 950.8 953.5H1029.1C1029.1 953.5 1031.7 945.3 1035.4 932.8C1014 934 1011.7 926.1 992.1 924.6Z" fill="#2252B2"></path> <path d="M1206.3 931C1174 938.5 1177 946.1 1175.5 953.5H1256.6C1240 842.4 1210 798.9 1210 798.9C1204.7 754.6 1170.2 585 1170.2 585L1173 548.2C1159 545.9 1145 543.7 1131 541.3C1116.8 538.9 1102.5 536.6 1088.4 534C1086.8 533.7 1085.3 533.4 1083.7 533.1L1073.3 571.5C1073.3 571.5 1128.1 732.9 1146.1 789.9C1164.2 846.9 1229 925.7 1206.3 931Z" fill="#FFA79B"></path> <path d="M1208.4 913C1212.2 923 1212.3 929.6 1206.3 931C1174 938.5 1177 946.1 1175.5 953.5H1256.6C1254.3 938 1251.7 923.7 1249 910.8C1235.5 912.5 1222 913 1208.4 913Z" fill="#FECA55"></path> <path d="M1233.5 932.7C1225.4 932.1 1217.5 930.2 1209.4 929.3C1208.6 930.1 1207.6 930.7 1206.3 931C1174 938.5 1177 946.1 1175.5 953.5H1256.6C1255.4 945.1 1254 937.2 1252.7 929.6C1246.8 932.2 1240.4 933.2 1233.5 932.7Z" fill="#2252B2"></path> <path d="M1246.3 898.7C1230 827.8 1210 798.9 1210 798.9C1204.7 754.6 1170.2 585 1170.2 585L1173 548.2C1159 545.9 1145 543.7 1131 541.3C1116.8 538.9 1102.5 536.6 1088.4 534C1086.8 533.7 1085.3 533.4 1083.7 533.1L1073.3 571.5C1073.3 571.5 1128.1 732.9 1146.1 789.9C1158.1 827.8 1190.7 875.3 1204.5 904.5C1218.5 902.3 1232.5 900.8 1246.3 898.7Z" fill="#2252B2"></path> <path d="M1138.4 580.3C1148.4 592.2 1160.5 600.8 1174.5 606.2C1171.9 593.1 1170.2 585 1170.2 585L1173 548.2C1159 545.9 1145 543.7 1131 541.3C1126.6 540.6 1122.2 539.8 1117.9 539.1C1119.7 554.2 1129.4 569.6 1138.4 580.3Z" fill="black"></path> <path d="M1102 657.5C1099.7 648.1 1097.3 638.6 1095 629.2C1094.9 628.7 1094.8 628.3 1094.6 627.8C1095 628 1095.5 628.1 1095.9 628.3C1096 628.8 1096.1 629.2 1096.2 629.7C1098.5 638.9 1100.8 648 1103 657.2C1103.3 658 1102.2 658.3 1102 657.5Z" fill="black"></path> <path d="M1096.3 629.7C1095.9 629.5 1095.4 629.3 1095 629.2C1091.9 628 1088.8 626.8 1085.6 625.6C1084.9 625.3 1085.2 624.2 1085.9 624.5C1088.8 625.6 1091.7 626.7 1094.6 627.9C1095 628.1 1095.5 628.2 1095.9 628.4C1096.1 628.8 1096.2 629.3 1096.3 629.7Z" fill="black"></path> <path d="M1144.6 429.1L1133.6 435.6L1070.3 473.2L1047 487.1C1038.4 471.4 1028.3 456.6 1019 441.2C1023.1 439.2 1027.5 437 1032.2 434.5C1082.1 408.2 1091 407.1 1135.6 425.3C1138.5 426.5 1141.5 427.8 1144.6 429.1Z" fill="#D24A43"></path> <path d="M1002.9 628.3C1000.3 634.3 997.6 640.3 995 646.3C993.2 650.4 999.5 653 1001.3 649C1003.9 643 1007 636.4 1009.6 630.4C1011.5 626.2 1004.7 624.2 1002.9 628.3Z" fill="#697CCC"></path> <path d="M1044.6 611C1044 612.2 1043.1 613.7 1042 615.2C1041.5 615.8 1041 616.5 1040.5 617.1C1031.1 628.8 1010.3 645.7 1000.7 641.7C989.4 637 989.5 610 992.3 595.8C992.4 595.1 992.6 594.5 992.7 593.9C992.7 593.8 992.8 593.6 992.8 593.5C993 592.8 993.1 592.1 993.3 591.6C993.6 590.5 993.9 589.6 994.3 588.8L1064.8 429.3L1068.6 420.7L1101.1 347.2C1101.4 346.5 1101.7 345.9 1102.1 345.4C1102.5 344.7 1103.1 344.1 1103.6 343.5C1108.6 338.5 1118.2 337.3 1128.2 340C1128.6 340.1 1129.1 340.2 1129.5 340.4C1129.6 340.4 1129.7 340.5 1129.8 340.5C1130.1 340.6 1130.4 340.7 1130.7 340.8C1131.2 341 1131.6 341.1 1132.1 341.3C1132.6 341.5 1133 341.6 1133.5 341.8C1133.8 341.9 1134.2 342.1 1134.5 342.2C1134.9 342.4 1135.3 342.6 1135.7 342.8C1136.1 343 1136.5 343.2 1136.9 343.4C1137.3 343.6 1137.7 343.8 1138 344C1147 349.3 1152.5 357.9 1152.2 365.1C1152.2 365.9 1152.1 366.7 1151.9 367.5C1151.8 368.2 1151.5 368.8 1151.3 369.5L1118.8 443L1117.9 445.1L1115 451.6L1044.6 611Z" fill="#697CCC"></path> <path d="M1123 442.1L1118.2 452.9L1061.6 427.8L1064.5 421.3L1067.1 415.5L1097.8 346C1098.1 345.3 1098.5 344.6 1099 343.9C1099 343.9 1099 343.8 1099.1 343.8C1099.6 343.2 1100.2 342.6 1100.8 342.1C1100.8 342.1 1100.8 342 1100.9 342C1106.7 337.4 1118 337 1128.3 339.8C1128.7 339.9 1129.2 340 1129.6 340.2C1129.7 340.2 1129.8 340.3 1129.9 340.3C1130.2 340.4 1130.5 340.5 1130.8 340.6C1131.3 340.8 1131.7 340.9 1132.2 341.1C1132.7 341.3 1133.1 341.4 1133.6 341.6C1133.9 341.7 1134.3 341.9 1134.6 342C1135 342.2 1135.4 342.4 1135.8 342.6C1136.2 342.8 1136.6 343 1137 343.2C1137.4 343.4 1137.8 343.6 1138.1 343.8C1147.2 349 1154.4 358 1155.2 365.4C1155.2 365.7 1155.3 365.9 1155.3 366.2C1155.3 366.8 1155.3 367.4 1155.3 367.9C1155.3 368.2 1155.2 368.4 1155.2 368.7C1155.1 369.4 1154.9 370.1 1154.6 370.7L1124 439.8L1123 442.1Z" fill="#697CCC"></path> <path d="M1109.4 350.9C1103.7 348.9 1098 347 1092.3 345C1090.9 344.5 1089 345.4 1088.4 346.7C1078.3 367.7 1068.1 388.8 1058 409.8C1056 413.9 1062.2 417.3 1064.1 413.2C1073.8 393 1083.5 372.9 1093.2 352.7C1098 354.4 1102.8 356 1107.6 357.7C1112 359.1 1113.6 352.3 1109.4 350.9Z" fill="#697CCC"></path> <path d="M1065.42 419.254L1064.49 421.357L1121.18 446.454L1122.11 444.351L1065.42 419.254Z" fill="white"></path> <path d="M1155.1 368.8L1099 344C1099 344 1099 343.9 1099.1 343.9C1099.6 343.3 1100.2 342.7 1100.8 342.2L1155.3 366.3C1155.3 366.9 1155.3 367.5 1155.3 368C1155.2 368.3 1155.1 368.6 1155.1 368.8Z" fill="white"></path> <path d="M1041.9 615.3C1041.4 615.9 1040.9 616.6 1040.4 617.2L992.3 595.9C992.4 595.2 992.6 594.6 992.7 594C992.7 593.9 992.8 593.7 992.8 593.6L1041.9 615.3Z" fill="white"></path> <path d="M1055.5 590.4C1050.7 589.6 1048.1 583 1046.3 578.8C1047.6 576.4 1049.5 574.2 1051.4 580.7C1052.5 584.3 1059.6 586.4 1057 579.1C1055.8 575.7 1054.7 568.8 1050.4 562.6C1049 560.7 1046 557.3 1042.7 555C1040.4 540.9 1035.5 511.6 1032.8 495.5L1039.5 486.6L1042.8 479.2C1035.3 462.9 1030.5 455.4 1023.2 439.1C977.8 461.9 967.4 460.1 985.2 508.6C993.1 530.2 1008.5 559.3 1014.2 570.3C1018.1 585.1 1026.4 598.8 1032.6 604.2C1036.7 607.8 1040.3 606.6 1040 604.5C1040.3 604.5 1040.7 604.4 1041 604.4C1044.3 606 1047.9 604.4 1047.6 602.5C1047.9 602.3 1048.3 602.2 1048.6 602C1050 602.3 1052 602.3 1053.6 600.9C1055.7 599.2 1054.9 598 1054.2 597.3C1054.3 597.2 1054.4 597.1 1054.5 596.9C1058.2 597 1059.6 591.1 1055.5 590.4Z" fill="#FFA79B"></path> <path d="M1053 596C1046.9 594 1042.4 589 1041 582.8C1040.8 582.1 1039.7 582.4 1039.9 583.1C1041.4 589.7 1046.3 595 1052.7 597.1C1053.4 597.4 1053.7 596.2 1053 596Z" fill="#D24A43"></path> <path d="M1047.4 600.6C1042.1 598.3 1038.2 593.9 1036.4 588.4C1036.2 587.7 1035 588 1035.3 588.7C1037.1 594.5 1041.2 599.2 1046.8 601.6C1047.5 601.9 1048.1 600.9 1047.4 600.6Z" fill="#D24A43"></path> <path d="M1040.5 603.4C1036.4 600.5 1033.3 596.6 1031.4 591.9C1031.1 591.2 1030 591.5 1030.3 592.2C1032.3 597.2 1035.5 601.3 1039.9 604.4C1040.5 604.9 1041.1 603.9 1040.5 603.4Z" fill="#D24A43"></path> <path d="M1032.1 492.4C1031.1 489.9 1030.1 487.3 1029.2 484.8C1028.9 484.1 1027.8 484.4 1028.1 485.1C1029.1 487.6 1030.1 490.2 1031 492.7C1031.3 493.4 1032.4 493.1 1032.1 492.4Z" fill="black"></path> <path d="M1186 514.7C1175.1 512.8 1163.8 510 1152.6 509.6L1146.8 526.5C1121.7 520.1 1088.1 515.9 1072.9 514.2C1071.4 509.8 1069 505.8 1065.5 502.7C1060.9 498.5 1053.8 496.6 1050.9 490.8C1049.6 488.2 1045.2 489.4 1045.5 492.3C1045.8 496.9 1048.4 499.6 1051.9 502.4C1052.8 503.1 1054.4 504 1055 505.1C1058.2 510.5 1053.1 511.4 1050 510.7C1045.5 509.8 1040.7 501.6 1038.7 499.8C1036.6 496.9 1031.7 499.8 1033.8 502.9C1034.3 503.7 1034.9 504.6 1035.6 505.5C1033.5 505.6 1031.6 507.6 1033.1 509.7C1033.5 510.2 1033.9 510.7 1034.3 511.3C1032.3 511.4 1030.4 514.3 1032.2 516.4C1032.6 516.9 1033 517.4 1033.4 517.9C1032 518.5 1030.9 520.2 1031.9 522C1038.5 534.2 1049.8 543 1062.7 546.9C1071.9 552.4 1094.9 564.7 1140.7 581.6C1188.2 599.1 1186.3 577.3 1203.7 525.4C1204.5 522.8 1192.6 515.8 1186 514.7Z" fill="#FFA79B"></path> <path d="M1212.1 497.8C1209.3 507.3 1207 515.9 1203.8 525.2C1195.1 523.4 1186.3 521.6 1177.5 520C1167.7 518.2 1157.9 516.5 1148 515.2L1154 454L1155.9 434.1C1163.4 437 1170.3 439.5 1176.5 441.9C1208.9 454.1 1222.8 461.4 1212.1 497.8Z" fill="#D24A43"></path> <path d="M1160.1 490.3C1157.2 497.6 1154.3 504.9 1151.4 512.1C1151.1 512.8 1152.2 513.2 1152.5 512.5C1155.4 505.2 1158.3 497.9 1161.2 490.7C1161.4 490.1 1160.3 489.6 1160.1 490.3Z" fill="white"></path> <path d="M1162.1 529.2C1157.9 528.1 1153.7 527 1149.5 526C1148.8 525.8 1148.5 526.9 1149.2 527.1C1153.4 528.2 1157.6 529.3 1161.8 530.3C1162.5 530.5 1162.8 529.3 1162.1 529.2Z" fill="black"></path> <path d="M1046.3 516.5C1042.7 514 1039.7 510.8 1037.4 507.1C1037 506.5 1036 507 1036.4 507.7C1038.8 511.6 1041.9 514.9 1045.7 517.6C1046.4 517.9 1047 516.9 1046.3 516.5Z" fill="#D24A43"></path> <path d="M1042.3 520.2C1039.9 518.2 1037.9 515.9 1036.2 513.2C1035.9 512.7 1035 513.2 1035.3 513.7C1037 516.4 1039.1 518.8 1041.5 520.9C1042.1 521.3 1042.8 520.6 1042.3 520.2Z" fill="#D24A43"></path> <path d="M1035.4 507.2C1035.3 506.5 1034.1 506.8 1034.3 507.5C1035.5 514.6 1036.7 521.7 1037.9 528.8C1038 529.5 1039.2 529.2 1039 528.5C1037.8 521.4 1036.6 514.3 1035.4 507.2Z" fill="#D24A43"></path> <path d="M1150.5 412.1C1150.5 412.7 1142.3 424.5 1136.3 433.1C1136.1 436 1136 439 1135.8 441.9L1163.7 442.8L1171.8 421L1150.5 412.1Z" fill="#FFA79B"></path> <path d="M1141.4 425.8C1146.1 419 1150.5 412.6 1150.5 412.1L1161.7 417.2C1157.4 422.9 1149.1 425.4 1141.4 425.8Z" fill="black"></path> <path d="M1190.3 392.9C1190 384.8 1177.5 376.8 1167.9 375.9C1163.7 375.5 1162.6 372.2 1160.7 375.1C1155.9 382.3 1140.4 404.1 1141.3 412.4C1142.7 424.5 1157.4 426.8 1166.9 422C1176.4 417.2 1190.8 404.4 1190.3 392.9Z" fill="#FFA79B"></path> <path d="M1163.9 368.9C1168.3 369.1 1173.2 374.2 1174.8 377.5C1182.6 380.4 1190 386.6 1190.3 392.8C1190.6 400.5 1184.3 408.8 1177.2 414.9C1175.1 412.2 1175.6 409.3 1174.7 405.5C1167.9 397.6 1171.8 390.5 1173.4 386.6C1170.3 386.8 1159.9 378.8 1159.5 375.2C1159.3 369.9 1162.5 368.9 1163.9 368.9Z" fill="#952C28"></path> <path d="M1184.5 414.9C1185.5 410.4 1180.9 404.8 1174.6 405.6C1171.8 409.8 1169 413.8 1166 417.9C1167.6 420.3 1172.2 423.3 1176.2 422.9C1180.8 422.3 1183.5 419.7 1184.5 414.9Z" fill="#FFA79B"></path> <path d="M1179.3 413.4C1177.4 413.7 1175.6 414 1173.7 414.3C1173 414.4 1173.3 415.5 1174 415.4C1175.9 415.1 1177.7 414.8 1179.6 414.5C1180.4 414.4 1180 413.3 1179.3 413.4Z" fill="#D24A43"></path> <path d="M1158 411.8C1157 412.7 1155.5 412.8 1154.4 411.9C1153.8 411.4 1153 412.2 1153.6 412.7C1155.1 414 1157.4 414 1158.8 412.6C1159.3 412.1 1158.5 411.2 1158 411.8Z" fill="#D24A43"></path> <path d="M1154.8 398.2C1153.9 398 1152.9 397.7 1152.2 397.1C1151.5 396.4 1151.2 395 1152.4 394.7C1153.1 394.5 1152.8 393.4 1152.1 393.6C1150.7 393.9 1150 395.4 1150.5 396.7C1151.1 398.3 1152.9 398.9 1154.4 399.3C1155.2 399.5 1155.5 398.4 1154.8 398.2Z" fill="#D24A43"></path> <path d="M1156.4 384.1C1156.1 384 1155.8 383.9 1155.5 383.8C1154.1 383.3 1153.4 385.5 1154.9 386C1155.2 386.1 1155.5 386.2 1155.8 386.3C1157.2 386.8 1157.8 384.6 1156.4 384.1Z" fill="#952C28"></path> <path d="M1167.8 390.7C1167.5 390.5 1167.1 390.2 1166.8 390C1166.3 389.6 1165.5 389.9 1165.2 390.4C1164.9 391 1165.1 391.6 1165.6 392C1165.9 392.2 1166.3 392.5 1166.6 392.7C1167.1 393.1 1167.9 392.8 1168.2 392.3C1168.6 391.7 1168.3 391.1 1167.8 390.7Z" fill="#952C28"></path> <path d="M1164.9 393.8C1164.3 394.6 1163.7 395.4 1163.1 396.1C1162.6 396.7 1163.7 397.3 1164.1 396.7C1164.7 395.9 1165.3 395.1 1165.9 394.4C1166.4 393.8 1165.4 393.2 1164.9 393.8Z" fill="black"></path> <path d="M1154.1 387.1C1153.5 387.9 1152.9 388.7 1152.3 389.4C1151.8 390 1152.9 390.6 1153.3 390C1153.9 389.2 1154.5 388.4 1155.1 387.7C1155.6 387.1 1154.6 386.5 1154.1 387.1Z" fill="black"></path> <path d="M1176.5 441.9L1170.7 445L1153.9 454L1127.1 468.4L1133.6 435.6L1134.3 432L1135.6 425.4C1138.4 426.6 1141.4 427.8 1144.5 429.1L1155.8 434.1C1163.4 437 1170.3 439.5 1176.5 441.9Z" fill="#FFA79B"></path> <path d="M516.809 642.6H423.191C422.596 642.6 422 641.853 422 640.808V545.392C422 544.496 422.496 543.6 423.191 543.6H516.809C517.404 543.6 518 544.347 518 545.392V640.808C517.901 641.704 517.404 642.6 516.809 642.6Z" fill="#FECA55"></path> <path d="M549.556 593.215L532.056 576.916C530.956 575.916 529.256 577.516 530.356 578.616C532.956 581.116 535.656 583.516 538.256 586.016C539.456 587.116 546.056 591.816 546.156 593.416C546.456 595.816 541.656 598.316 539.956 599.816C536.756 602.516 533.556 605.116 530.456 607.816C529.256 608.816 530.956 610.416 532.156 609.516C537.956 604.716 543.756 599.816 549.456 595.016C550.056 594.516 549.956 593.615 549.556 593.215Z" fill="#697CCC"></path> <path d="M390.289 592.215L407.789 575.916C408.889 574.916 410.589 576.516 409.489 577.616C406.889 580.116 404.189 582.516 401.589 585.016C400.389 586.116 393.789 590.816 393.689 592.416C393.389 594.816 398.189 597.316 399.889 598.816C403.089 601.516 406.289 604.116 409.389 606.816C410.589 607.816 408.889 609.416 407.689 608.516C401.889 603.716 396.089 598.816 390.389 594.016C389.889 593.516 389.889 592.615 390.289 592.215Z" fill="#697CCC"></path> <path d="M510.2 550.6H430.3V559.2H510.2V550.6Z" fill="white"></path> <path d="M501.6 563.4H431.5C430 563.4 430 565.7 431.5 565.7H501.6C503.1 565.8 503.1 563.4 501.6 563.4Z" fill="white"></path> <path d="M508 572.6H452V581.6H508V572.6Z" fill="white"></path> <path d="M502.207 585.6H452.793C451.736 585.6 451.736 587.597 452.793 587.597H502.207C503.264 587.684 503.264 585.6 502.207 585.6Z" fill="white"></path> <path d="M442 460C450.104 487.735 458.36 515.366 466.464 543.101C466.922 544.653 470.286 544.032 469.98 542.48C461.877 514.952 453.773 487.528 445.67 460H442Z" fill="#FECA55"></path> <path d="M435.7 535H421.7C420.2 535 420.2 537.3 421.7 537.3H435.7C437.2 537.3 437.2 535 435.7 535Z" fill="#FF5950"></path> <path d="M449 569.6H430V588.6H449V569.6Z" fill="#D24A43"></path> <path d="M438.857 585.6C438.619 585.6 438.44 585.481 438.261 585.302L433.127 577.862C432.888 577.565 433.008 577.088 433.306 576.91C433.605 576.672 434.082 576.791 434.261 577.088L438.798 583.695L445.722 572.922C445.901 572.624 446.379 572.505 446.677 572.684C446.976 572.862 447.095 573.339 446.916 573.636L439.454 585.302C439.335 585.481 439.096 585.6 438.857 585.6Z" fill="#EBF4FF"></path> <path d="M508 596.6H452V605.6H508V596.6Z" fill="white"></path> <path d="M502.207 609.6H452.793C451.736 609.6 451.736 611.597 452.793 611.597H502.207C503.264 611.684 503.264 609.6 502.207 609.6Z" fill="white"></path> <path d="M449 593.6H430V612.6H449V593.6Z" fill="#D24A43"></path> <path d="M438.857 609.6C438.619 609.6 438.44 609.481 438.261 609.302L433.127 601.862C432.888 601.565 433.008 601.088 433.306 600.91C433.605 600.672 434.082 600.791 434.261 601.088L438.798 607.695L445.722 596.922C445.901 596.624 446.379 596.505 446.677 596.684C446.976 596.862 447.095 597.339 446.916 597.636L439.454 609.302C439.335 609.481 439.096 609.6 438.857 609.6Z" fill="#EBF4FF"></path> <path d="M508 618.6H452V627.6H508V618.6Z" fill="white"></path> <path d="M502.207 631.6H452.793C451.736 631.6 451.736 633.597 452.793 633.597H502.207C503.264 633.684 503.264 631.6 502.207 631.6Z" fill="white"></path> <path d="M449 615.6H430V634.6H449V615.6Z" fill="#D24A43"></path> <path d="M438.857 631.6C438.619 631.6 438.44 631.481 438.261 631.302L433.127 623.862C432.888 623.565 433.008 623.088 433.306 622.91C433.605 622.672 434.082 622.791 434.261 623.088L438.798 629.695L445.722 618.922C445.901 618.624 446.379 618.505 446.677 618.684C446.976 618.862 447.095 619.339 446.916 619.636L439.454 631.302C439.335 631.481 439.096 631.6 438.857 631.6Z" fill="#EBF4FF"></path> <path d="M371.809 308H278.191C277.596 308 277 307.253 277 306.208V210.792C277 209.896 277.496 209 278.191 209H371.809C372.404 209 373 209.747 373 210.792V306.208C372.901 307.104 372.404 308 371.809 308Z" fill="#FECA55"></path> <path d="M404.556 258.615L387.056 242.316C385.956 241.316 384.256 242.916 385.356 244.016C387.956 246.516 390.656 248.915 393.256 251.415C394.456 252.515 401.056 257.216 401.156 258.816C401.456 261.216 396.656 263.715 394.956 265.215C391.756 267.915 388.556 270.515 385.456 273.215C384.256 274.215 385.956 275.816 387.156 274.916C392.956 270.116 398.756 265.215 404.456 260.415C405.056 259.915 404.956 259.015 404.556 258.615Z" fill="#697CCC"></path> <path d="M245.289 257.615L262.789 241.316C263.889 240.316 265.589 241.916 264.489 243.016C261.889 245.516 259.189 247.915 256.589 250.415C255.389 251.515 248.789 256.216 248.689 257.816C248.389 260.216 253.189 262.715 254.889 264.215C258.089 266.915 261.289 269.515 264.389 272.215C265.589 273.215 263.889 274.816 262.689 273.916C256.889 269.116 251.089 264.215 245.389 259.415C244.889 258.915 244.889 258.015 245.289 257.615Z" fill="#697CCC"></path> <path d="M365.2 216H285.3V224.6H365.2V216Z" fill="white"></path> <path d="M356.6 228.8H286.5C285 228.8 285 231.1 286.5 231.1H356.6C358.1 231.2 358.1 228.8 356.6 228.8Z" fill="white"></path> <path d="M363 238H307V247H363V238Z" fill="white"></path> <path d="M357.207 251H307.793C306.736 251 306.736 252.997 307.793 252.997H357.207C358.264 253.084 358.264 251 357.207 251Z" fill="white"></path> <path d="M316 273.6C321.3 300.4 326.7 327.1 332 353.9C332.3 355.4 334.5 354.8 334.3 353.3C329 326.7 323.7 300.2 318.4 273.6H316Z" fill="#FECA55"></path> <path d="M290.7 200.4H276.7C275.2 200.4 275.2 202.7 276.7 202.7H290.7C292.2 202.7 292.2 200.4 290.7 200.4Z" fill="#FF5950"></path> <path d="M304 235H285V254H304V235Z" fill="#D24A43"></path> <path d="M293.857 251C293.619 251 293.44 250.881 293.261 250.702L288.127 243.262C287.888 242.965 288.008 242.488 288.306 242.31C288.605 242.072 289.082 242.191 289.261 242.488L293.798 249.095L300.722 238.322C300.901 238.024 301.379 237.905 301.677 238.084C301.976 238.262 302.095 238.739 301.916 239.036L294.454 250.702C294.335 250.881 294.096 251 293.857 251Z" fill="#EBF4FF"></path> <path d="M363 262H307V271H363V262Z" fill="white"></path> <path d="M357.207 275H307.793C306.736 275 306.736 276.997 307.793 276.997H357.207C358.264 277.084 358.264 275 357.207 275Z" fill="white"></path> <path d="M304 259H285V278H304V259Z" fill="#D24A43"></path> <path d="M293.857 275C293.619 275 293.44 274.881 293.261 274.702L288.127 267.262C287.888 266.965 288.008 266.488 288.306 266.31C288.605 266.072 289.082 266.191 289.261 266.488L293.798 273.095L300.722 262.322C300.901 262.024 301.379 261.905 301.677 262.084C301.976 262.262 302.095 262.739 301.916 263.036L294.454 274.702C294.335 274.881 294.096 275 293.857 275Z" fill="#EBF4FF"></path> <path d="M363 284H307V293H363V284Z" fill="white"></path> <path d="M357.207 297H307.793C306.736 297 306.736 298.997 307.793 298.997H357.207C358.264 299.084 358.264 297 357.207 297Z" fill="white"></path> <path d="M304 281H285V300H304V281Z" fill="#D24A43"></path> <path d="M293.857 297C293.619 297 293.44 296.881 293.261 296.702L288.127 289.262C287.888 288.965 288.008 288.488 288.306 288.31C288.605 288.072 289.082 288.191 289.261 288.488L293.798 295.095L300.722 284.322C300.901 284.024 301.379 283.905 301.677 284.084C301.976 284.262 302.095 284.739 301.916 285.036L294.454 296.702C294.335 296.881 294.096 297 293.857 297Z" fill="#EBF4FF"></path> <path d="M515 66H661" stroke="white" stroke-width="2" stroke-miterlimit="10"></path> <path d="M515 80.498H661" stroke="white" stroke-width="2" stroke-miterlimit="10"></path> <path d="M515 95.0717H661" stroke="white" stroke-width="2" stroke-miterlimit="10"></path> <path d="M515 122.929H661" stroke="white" stroke-width="2" stroke-miterlimit="10"></path> <path d="M515 137.427H661" stroke="white" stroke-width="2" stroke-miterlimit="10"></path> <path d="M515 152H661" stroke="white" stroke-width="2" stroke-miterlimit="10"></path> </svg> 